<mxfile host="app.diagrams.net" agent="Mozilla/5.0 (Windows NT 10.0; Win64; x64) AppleWebKit/537.36 (KHTML, like Gecko) Chrome/130.0.0.0 Safari/537.36 Edg/130.0.0.0" version="24.8.3">
  <diagram name="Sivu-1" id="xn-f5AUS_XdSc_gPqQBp">
    <mxGraphModel dx="828" dy="869" grid="1" gridSize="10" guides="1" tooltips="1" connect="1" arrows="1" fold="1" page="1" pageScale="1" pageWidth="827" pageHeight="1169" math="0" shadow="0">
      <root>
        <mxCell id="0" />
        <mxCell id="1" parent="0" />
        <mxCell id="91EXtdfc8P3plZx-EZJF-3" value="" style="edgeStyle=orthogonalEdgeStyle;rounded=0;orthogonalLoop=1;jettySize=auto;html=1;" edge="1" parent="1" source="91EXtdfc8P3plZx-EZJF-1" target="91EXtdfc8P3plZx-EZJF-2">
          <mxGeometry relative="1" as="geometry" />
        </mxCell>
        <mxCell id="91EXtdfc8P3plZx-EZJF-1" value="Aloitus" style="ellipse;whiteSpace=wrap;html=1;" vertex="1" parent="1">
          <mxGeometry x="353" y="40" width="120" height="80" as="geometry" />
        </mxCell>
        <mxCell id="91EXtdfc8P3plZx-EZJF-5" value="" style="edgeStyle=orthogonalEdgeStyle;rounded=0;orthogonalLoop=1;jettySize=auto;html=1;" edge="1" parent="1" source="91EXtdfc8P3plZx-EZJF-2" target="91EXtdfc8P3plZx-EZJF-4">
          <mxGeometry relative="1" as="geometry" />
        </mxCell>
        <mxCell id="91EXtdfc8P3plZx-EZJF-2" value="var l1" style="rounded=0;whiteSpace=wrap;html=1;" vertex="1" parent="1">
          <mxGeometry x="350" y="160" width="120" height="60" as="geometry" />
        </mxCell>
        <mxCell id="91EXtdfc8P3plZx-EZJF-7" value="" style="edgeStyle=orthogonalEdgeStyle;rounded=0;orthogonalLoop=1;jettySize=auto;html=1;" edge="1" parent="1" source="91EXtdfc8P3plZx-EZJF-4" target="91EXtdfc8P3plZx-EZJF-6">
          <mxGeometry relative="1" as="geometry" />
        </mxCell>
        <mxCell id="91EXtdfc8P3plZx-EZJF-4" value="Anna luku&lt;div&gt;l1&lt;/div&gt;" style="shape=parallelogram;perimeter=parallelogramPerimeter;whiteSpace=wrap;html=1;fixedSize=1;" vertex="1" parent="1">
          <mxGeometry x="350" y="260" width="120" height="60" as="geometry" />
        </mxCell>
        <mxCell id="91EXtdfc8P3plZx-EZJF-10" value="" style="edgeStyle=orthogonalEdgeStyle;rounded=0;orthogonalLoop=1;jettySize=auto;html=1;" edge="1" parent="1" source="91EXtdfc8P3plZx-EZJF-6" target="91EXtdfc8P3plZx-EZJF-9">
          <mxGeometry relative="1" as="geometry" />
        </mxCell>
        <mxCell id="91EXtdfc8P3plZx-EZJF-15" value="" style="edgeStyle=orthogonalEdgeStyle;rounded=0;orthogonalLoop=1;jettySize=auto;html=1;" edge="1" parent="1" source="91EXtdfc8P3plZx-EZJF-6" target="91EXtdfc8P3plZx-EZJF-14">
          <mxGeometry relative="1" as="geometry" />
        </mxCell>
        <mxCell id="91EXtdfc8P3plZx-EZJF-6" value="l %2 ==0" style="rhombus;whiteSpace=wrap;html=1;" vertex="1" parent="1">
          <mxGeometry x="370" y="350" width="80" height="80" as="geometry" />
        </mxCell>
        <mxCell id="91EXtdfc8P3plZx-EZJF-19" value="" style="edgeStyle=orthogonalEdgeStyle;rounded=0;orthogonalLoop=1;jettySize=auto;html=1;" edge="1" parent="1" source="91EXtdfc8P3plZx-EZJF-8" target="91EXtdfc8P3plZx-EZJF-18">
          <mxGeometry relative="1" as="geometry" />
        </mxCell>
        <mxCell id="91EXtdfc8P3plZx-EZJF-8" value="tulostaa&lt;div&gt;&quot;Luku on parillinen&quot;&lt;/div&gt;" style="rounded=0;whiteSpace=wrap;html=1;" vertex="1" parent="1">
          <mxGeometry x="450" y="490" width="120" height="60" as="geometry" />
        </mxCell>
        <mxCell id="91EXtdfc8P3plZx-EZJF-11" value="" style="edgeStyle=orthogonalEdgeStyle;rounded=0;orthogonalLoop=1;jettySize=auto;html=1;" edge="1" parent="1" source="91EXtdfc8P3plZx-EZJF-9" target="91EXtdfc8P3plZx-EZJF-8">
          <mxGeometry relative="1" as="geometry" />
        </mxCell>
        <mxCell id="91EXtdfc8P3plZx-EZJF-9" value="KyllÃ¤" style="text;html=1;align=center;verticalAlign=middle;resizable=0;points=[];autosize=1;strokeColor=none;fillColor=none;" vertex="1" parent="1">
          <mxGeometry x="485" y="375" width="50" height="30" as="geometry" />
        </mxCell>
        <mxCell id="91EXtdfc8P3plZx-EZJF-12" value="Lopetus" style="ellipse;whiteSpace=wrap;html=1;" vertex="1" parent="1">
          <mxGeometry x="350" y="610" width="120" height="80" as="geometry" />
        </mxCell>
        <mxCell id="91EXtdfc8P3plZx-EZJF-17" value="" style="edgeStyle=orthogonalEdgeStyle;rounded=0;orthogonalLoop=1;jettySize=auto;html=1;" edge="1" parent="1" source="91EXtdfc8P3plZx-EZJF-18" target="91EXtdfc8P3plZx-EZJF-12">
          <mxGeometry relative="1" as="geometry" />
        </mxCell>
        <mxCell id="91EXtdfc8P3plZx-EZJF-13" value="tulostaa &quot;Luku on pariton&quot;" style="rounded=0;whiteSpace=wrap;html=1;" vertex="1" parent="1">
          <mxGeometry x="250" y="490" width="120" height="60" as="geometry" />
        </mxCell>
        <mxCell id="91EXtdfc8P3plZx-EZJF-16" value="" style="edgeStyle=orthogonalEdgeStyle;rounded=0;orthogonalLoop=1;jettySize=auto;html=1;" edge="1" parent="1" source="91EXtdfc8P3plZx-EZJF-14" target="91EXtdfc8P3plZx-EZJF-13">
          <mxGeometry relative="1" as="geometry" />
        </mxCell>
        <mxCell id="91EXtdfc8P3plZx-EZJF-14" value="Ei" style="text;html=1;align=center;verticalAlign=middle;whiteSpace=wrap;rounded=0;" vertex="1" parent="1">
          <mxGeometry x="280" y="375" width="60" height="30" as="geometry" />
        </mxCell>
        <mxCell id="91EXtdfc8P3plZx-EZJF-20" value="" style="edgeStyle=orthogonalEdgeStyle;rounded=0;orthogonalLoop=1;jettySize=auto;html=1;" edge="1" parent="1" source="91EXtdfc8P3plZx-EZJF-13" target="91EXtdfc8P3plZx-EZJF-18">
          <mxGeometry relative="1" as="geometry">
            <mxPoint x="310" y="550" as="sourcePoint" />
            <mxPoint x="410" y="610" as="targetPoint" />
          </mxGeometry>
        </mxCell>
        <mxCell id="91EXtdfc8P3plZx-EZJF-18" value="" style="shape=waypoint;sketch=0;size=6;pointerEvents=1;points=[];fillColor=default;resizable=0;rotatable=0;perimeter=centerPerimeter;snapToPoint=1;rounded=0;" vertex="1" parent="1">
          <mxGeometry x="400" y="560" width="20" height="20" as="geometry" />
        </mxCell>
      </root>
    </mxGraphModel>
  </diagram>
</mxfile>
